<?xml version="1.0" standalone="no"?>
<svg xmlns="http://www.w3.org/2000/svg" viewBox="0 0 35 65" width="35" height="65"><g fill="#BABF2C" color="#BABF2C" transform="translate(0 0) scale(0.35) "><svg width="100.0" height="100.0" x="0.0" y="0.0" viewBox="0 0 100 100"><g><path d="M79.808,42.533c0-0.992-0.812-1.803-1.804-1.803L52.3,40.704l-0.979,0.005c-0.914-4.928-0.914-14.727,1.429-18.24   C64.499,19.509,65.64,8.348,65.64,8.348c-9.322-0.665-12.751,2.529-14.839,8.322C49.737,1.391,34.815,0.026,34.815,0.026   C31.42,11.811,37.212,19.267,46.389,22.5c0,0,0.783,0.191,1.823,0.325c-0.745,2.154-1.188,4.829-1.37,7.606   c-2.588-3.229-8.004-3.648-9.857-2.221c0,0,1.818,6.953,9.762,5.869c0.027,2.374,0.228,4.678,0.57,6.65l-1.561,0.009l-24.291,0.005   c-0.992,0.001-1.805,0.813-1.805,1.806l0.004,11.201c0,0.992,0.812,1.804,1.805,1.804l56.54-0.017c0.992,0,1.804-0.812,1.804-1.804   L79.808,42.533z"></path><path d="M72.778,60.233l-46.08,0.015c-0.992,0-1.649,0.796-1.456,1.77l7.082,36.192c0.19,0.975,1.157,1.772,2.149,1.772   l31.472,0.004c0.993-0.001,1.942-0.8,2.111-1.778l6.22-36.195C74.445,61.034,73.771,60.233,72.778,60.233z"></path></g></svg></g><line x1="1.0500000000000007" y1="41" x2="33.95" y2="41" stroke="#403C01" stroke-linecap="round"></line><path fill="#403C01" fill-rule="nonzero" d="M4.68 17.21L4.68 17.21Q3.38 17.21 2.33 16.56Q1.27 15.91 0.64 14.82Q0 13.73 0 12.38L0 12.38L0 4.78Q0 3.48 0.64 2.39Q1.27 1.30 2.34 0.65Q3.41 0 4.68 0L4.68 0Q6 0 7.07 0.64Q8.14 1.27 8.76 2.35Q9.38 3.43 9.38 4.78L9.38 4.78L9.38 5.88Q9.38 5.98 9.26 5.98L9.26 5.98L6.58 5.98Q6.48 5.98 6.48 5.88L6.48 5.88L6.48 4.97Q6.48 4.06 5.96 3.46Q5.45 2.86 4.68 2.86L4.68 2.86Q3.98 2.86 3.44 3.43Q2.90 4.01 2.90 4.78L2.90 4.78L2.90 12.38Q2.90 13.18 3.43 13.74Q3.96 14.30 4.68 14.30L4.68 14.30Q5.45 14.30 5.96 13.75Q6.48 13.20 6.48 12.38L6.48 12.38L6.48 11.21L4.80 11.21Q4.68 11.21 4.68 11.09L4.68 11.09L4.68 8.40Q4.68 8.28 4.80 8.28L4.80 8.28L9.29 8.28Q9.38 8.28 9.38 8.40L9.38 8.40L9.38 12.38Q9.38 13.73 8.75 14.82Q8.11 15.91 7.06 16.56Q6 17.21 4.68 17.21ZM15.17 17.21L15.17 17.21Q13.87 17.21 12.80 16.55Q11.74 15.89 11.10 14.80Q10.46 13.70 10.46 12.38L10.46 12.38L10.46 11.28Q10.46 11.16 10.58 11.16L10.58 11.16L13.27 11.16Q13.37 11.16 13.37 11.28L13.37 11.28L13.37 12.38Q13.37 13.18 13.90 13.74Q14.42 14.30 15.17 14.30L15.17 14.30Q15.91 14.30 16.44 13.73Q16.97 13.15 16.97 12.38L16.97 12.38Q16.97 11.50 15.82 10.85L15.82 10.85Q15.43 10.63 14.62 10.18Q13.80 9.72 13.08 9.31L13.08 9.31Q11.76 8.54 11.12 7.38Q10.49 6.22 10.49 4.75L10.49 4.75Q10.49 3.41 11.14 2.34Q11.78 1.27 12.85 0.65Q13.92 0.02 15.17 0.02L15.17 0.02Q16.44 0.02 17.51 0.66Q18.58 1.30 19.21 2.36Q19.85 3.43 19.85 4.75L19.85 4.75L19.85 6.72Q19.85 6.82 19.75 6.82L19.75 6.82L17.06 6.82Q16.97 6.82 16.97 6.72L16.97 6.72L16.94 4.75Q16.94 3.91 16.42 3.38Q15.89 2.86 15.17 2.86L15.17 2.86Q14.42 2.86 13.90 3.42Q13.37 3.98 13.37 4.75L13.37 4.75Q13.37 5.54 13.70 6.07Q14.04 6.60 14.93 7.08L14.93 7.08Q15.05 7.15 15.40 7.33Q15.74 7.51 16.15 7.74Q16.56 7.97 16.88 8.14Q17.21 8.30 17.28 8.35L17.28 8.35Q18.48 9.02 19.18 10.00Q19.87 10.97 19.87 12.38L19.87 12.38Q19.87 13.75 19.24 14.84Q18.60 15.94 17.53 16.57Q16.46 17.21 15.17 17.21Z" transform="translate(7.564, 47)"></path></svg>